<mxfile host="app.diagrams.net" modified="2024-07-02T13:54:56.010Z" agent="Mozilla/5.0 (Windows NT 10.0; Win64; x64) AppleWebKit/537.36 (KHTML, like Gecko) Chrome/126.0.0.0 Safari/537.36 Edg/126.0.0.0" version="24.6.4" etag="1YvQdZ5qmt6E-TTPiDZG" type="github">
  <diagram name="Page-1" id="3gt5onoUfku_GFuWejce">
    <mxGraphModel>
      <root>
        <mxCell id="0" />
        <mxCell id="1" parent="0" />
        <mxCell id="2" value="Start" style="whiteSpace=wrap;strokeWidth=2;" vertex="1" parent="1">
          <mxGeometry x="394" width="51" height="34" as="geometry" />
        </mxCell>
        <mxCell id="3" value="Logged in?" style="rounded=1;absoluteArcSize=1;arcSize=14;whiteSpace=wrap;strokeWidth=2;" vertex="1" parent="1">
          <mxGeometry x="375" y="84" width="90" height="34" as="geometry" />
        </mxCell>
        <mxCell id="4" value="Main Menu" style="whiteSpace=wrap;strokeWidth=2;" vertex="1" parent="1">
          <mxGeometry x="293" y="458" width="92" height="34" as="geometry" />
        </mxCell>
        <mxCell id="5" value="Select Action" style="rhombus;strokeWidth=2;whiteSpace=wrap;" vertex="1" parent="1">
          <mxGeometry x="214" y="542" width="143" height="143" as="geometry" />
        </mxCell>
        <mxCell id="6" value="Input Item Details" style="whiteSpace=wrap;strokeWidth=2;" vertex="1" parent="1">
          <mxGeometry y="754" width="144" height="34" as="geometry" />
        </mxCell>
        <mxCell id="7" value="Select Item to Remove" style="whiteSpace=wrap;strokeWidth=2;" vertex="1" parent="1">
          <mxGeometry x="581" y="754" width="177" height="34" as="geometry" />
        </mxCell>
        <mxCell id="8" value="Save Item" style="whiteSpace=wrap;strokeWidth=2;" vertex="1" parent="1">
          <mxGeometry x="83" y="838" width="85" height="34" as="geometry" />
        </mxCell>
        <mxCell id="9" value="Confirm Removal" style="whiteSpace=wrap;strokeWidth=2;" vertex="1" parent="1">
          <mxGeometry x="716" y="838" width="137" height="34" as="geometry" />
        </mxCell>
        <mxCell id="10" value="Display Inventory" style="whiteSpace=wrap;strokeWidth=2;" vertex="1" parent="1">
          <mxGeometry x="278" y="754" width="139" height="34" as="geometry" />
        </mxCell>
        <mxCell id="11" value="Logout" style="whiteSpace=wrap;strokeWidth=2;" vertex="1" parent="1">
          <mxGeometry x="467" y="754" width="64" height="34" as="geometry" />
        </mxCell>
        <mxCell id="12" value="Login Page" style="whiteSpace=wrap;strokeWidth=2;" vertex="1" parent="1">
          <mxGeometry x="321" y="187" width="91" height="34" as="geometry" />
        </mxCell>
        <mxCell id="13" value="Input Username and Password" style="whiteSpace=wrap;strokeWidth=2;" vertex="1" parent="1">
          <mxGeometry x="165" y="271" width="229" height="34" as="geometry" />
        </mxCell>
        <mxCell id="14" value="Validate Login" style="whiteSpace=wrap;strokeWidth=2;" vertex="1" parent="1">
          <mxGeometry x="308" y="355" width="117" height="34" as="geometry" />
        </mxCell>
        <mxCell id="15" value="" style="curved=1;startArrow=none;endArrow=block;exitX=0.5;exitY=1;entryX=0.5;entryY=0;" edge="1" parent="1" source="2" target="3">
          <mxGeometry relative="1" as="geometry">
            <Array as="points" />
          </mxGeometry>
        </mxCell>
        <mxCell id="16" value="Yes" style="curved=1;startArrow=none;endArrow=block;exitX=0;exitY=0.72;entryX=0;entryY=0.19;" edge="1" parent="1" source="3" target="4">
          <mxGeometry relative="1" as="geometry">
            <Array as="points">
              <mxPoint x="118" y="153" />
              <mxPoint x="118" y="424" />
            </Array>
          </mxGeometry>
        </mxCell>
        <mxCell id="17" value="" style="curved=1;startArrow=none;endArrow=block;exitX=0.26;exitY=1;entryX=0.5;entryY=0;" edge="1" parent="1" source="4" target="5">
          <mxGeometry relative="1" as="geometry">
            <Array as="points">
              <mxPoint x="286" y="517" />
            </Array>
          </mxGeometry>
        </mxCell>
        <mxCell id="18" value="Add Item" style="curved=1;startArrow=none;endArrow=block;exitX=0;exitY=0.75;entryX=0.5;entryY=0;" edge="1" parent="1" source="5" target="6">
          <mxGeometry relative="1" as="geometry">
            <Array as="points">
              <mxPoint x="72" y="719" />
            </Array>
          </mxGeometry>
        </mxCell>
        <mxCell id="19" value="Remove Item" style="curved=1;startArrow=none;endArrow=block;exitX=1;exitY=0.64;entryX=0.5;entryY=0;" edge="1" parent="1" source="5" target="7">
          <mxGeometry relative="1" as="geometry">
            <Array as="points">
              <mxPoint x="670" y="719" />
            </Array>
          </mxGeometry>
        </mxCell>
        <mxCell id="20" value="" style="curved=1;startArrow=none;endArrow=block;exitX=0.5;exitY=1;entryX=0.25;entryY=0;" edge="1" parent="1" source="6" target="8">
          <mxGeometry relative="1" as="geometry">
            <Array as="points">
              <mxPoint x="72" y="813" />
            </Array>
          </mxGeometry>
        </mxCell>
        <mxCell id="21" value="" style="curved=1;startArrow=none;endArrow=block;exitX=0.5;exitY=1;entryX=0.16;entryY=0;" edge="1" parent="1" source="7" target="9">
          <mxGeometry relative="1" as="geometry">
            <Array as="points">
              <mxPoint x="670" y="813" />
            </Array>
          </mxGeometry>
        </mxCell>
        <mxCell id="22" value="" style="curved=1;startArrow=none;endArrow=block;exitX=0.76;exitY=0;entryX=0;entryY=0.85;" edge="1" parent="1" source="8" target="4">
          <mxGeometry relative="1" as="geometry">
            <Array as="points">
              <mxPoint x="179" y="813" />
              <mxPoint x="179" y="517" />
            </Array>
          </mxGeometry>
        </mxCell>
        <mxCell id="23" value="" style="curved=1;startArrow=none;endArrow=block;exitX=0.53;exitY=0;entryX=1;entryY=0.62;" edge="1" parent="1" source="9" target="4">
          <mxGeometry relative="1" as="geometry">
            <Array as="points">
              <mxPoint x="793" y="813" />
              <mxPoint x="793" y="517" />
            </Array>
          </mxGeometry>
        </mxCell>
        <mxCell id="24" value="View Inventory" style="curved=1;startArrow=none;endArrow=block;exitX=0.5;exitY=1;entryX=0.35;entryY=0;" edge="1" parent="1" source="5" target="10">
          <mxGeometry relative="1" as="geometry">
            <Array as="points">
              <mxPoint x="286" y="719" />
            </Array>
          </mxGeometry>
        </mxCell>
        <mxCell id="25" value="" style="curved=1;startArrow=none;endArrow=block;exitX=0.63;exitY=0;entryX=0.77;entryY=1;" edge="1" parent="1" source="10" target="4">
          <mxGeometry relative="1" as="geometry">
            <Array as="points">
              <mxPoint x="401" y="719" />
              <mxPoint x="401" y="517" />
            </Array>
          </mxGeometry>
        </mxCell>
        <mxCell id="26" value="Logout" style="curved=1;startArrow=none;endArrow=block;exitX=1;exitY=0.83;entryX=0.22;entryY=0;" edge="1" parent="1" source="5" target="11">
          <mxGeometry relative="1" as="geometry">
            <Array as="points">
              <mxPoint x="445" y="719" />
            </Array>
          </mxGeometry>
        </mxCell>
        <mxCell id="27" value="" style="curved=1;startArrow=none;endArrow=block;exitX=0.77;exitY=0;entryX=0.98;entryY=1;" edge="1" parent="1" source="11" target="3">
          <mxGeometry relative="1" as="geometry">
            <Array as="points">
              <mxPoint x="551" y="719" />
              <mxPoint x="551" y="153" />
            </Array>
          </mxGeometry>
        </mxCell>
        <mxCell id="28" value="No" style="curved=1;startArrow=none;endArrow=block;exitX=0.3;exitY=1;entryX=0.5;entryY=0;" edge="1" parent="1" source="3" target="12">
          <mxGeometry relative="1" as="geometry">
            <Array as="points">
              <mxPoint x="366" y="153" />
            </Array>
          </mxGeometry>
        </mxCell>
        <mxCell id="29" value="" style="curved=1;startArrow=none;endArrow=block;exitX=0.11;exitY=1;entryX=0.5;entryY=0;" edge="1" parent="1" source="12" target="13">
          <mxGeometry relative="1" as="geometry">
            <Array as="points">
              <mxPoint x="280" y="246" />
            </Array>
          </mxGeometry>
        </mxCell>
        <mxCell id="30" value="" style="curved=1;startArrow=none;endArrow=block;exitX=0.5;exitY=1;entryX=0.2;entryY=0;" edge="1" parent="1" source="13" target="14">
          <mxGeometry relative="1" as="geometry">
            <Array as="points">
              <mxPoint x="280" y="330" />
            </Array>
          </mxGeometry>
        </mxCell>
        <mxCell id="31" value="Valid" style="curved=1;startArrow=none;endArrow=block;exitX=0.5;exitY=1;entryX=0.6;entryY=0;" edge="1" parent="1" source="14" target="4">
          <mxGeometry relative="1" as="geometry">
            <Array as="points">
              <mxPoint x="366" y="424" />
            </Array>
          </mxGeometry>
        </mxCell>
        <mxCell id="32" value="Invalid" style="curved=1;startArrow=none;endArrow=block;exitX=0.8;exitY=0;entryX=0.88;entryY=1;" edge="1" parent="1" source="14" target="12">
          <mxGeometry relative="1" as="geometry">
            <Array as="points">
              <mxPoint x="453" y="330" />
              <mxPoint x="453" y="246" />
            </Array>
          </mxGeometry>
        </mxCell>
      </root>
    </mxGraphModel>
  </diagram>
</mxfile>
